<?xml version="1.0" encoding="UTF-8" standalone="no"?>
<!DOCTYPE svg PUBLIC "-//W3C//DTD SVG 1.1//EN" "http://www.w3.org/Graphics/SVG/1.1/DTD/svg11.dtd">
<svg width="100%" height="100%" viewBox="0 0 1080 1080" version="1.1" xmlns="http://www.w3.org/2000/svg" xmlns:xlink="http://www.w3.org/1999/xlink" xml:space="preserve" xmlns:serif="http://www.serif.com/" style="fill-rule:evenodd;clip-rule:evenodd;stroke-linejoin:round;stroke-miterlimit:2;">
    <g transform="matrix(1,0,0,1,5.80293e-08,-100.469)">
        <path d="M217.282,960.947C216.439,959.294 216,957.466 216,955.611L216,131.151C216,124.663 221.26,119.403 227.748,119.403L420.252,119.403C426.74,119.403 432,124.663 432,131.151L432,660.786C432,661.305 432.397,661.738 432.914,661.782C433.431,661.827 433.896,661.469 433.985,660.958L455.543,537.392C455.676,536.632 456.235,536.017 456.978,535.81C457.722,535.604 458.518,535.844 459.023,536.426C471.065,550.071 486.499,560.651 504,566.845C515.262,570.831 527.38,573 540,573C599.607,573 648,524.607 648,465L648,131.151C648,128.036 649.238,125.047 651.441,122.844C653.644,120.641 656.633,119.403 659.748,119.403L852.252,119.403C855.367,119.403 858.356,120.641 860.559,122.844C862.762,125.047 864,128.036 864,131.151L864,465C864,643.82 718.82,789 540,789C506.714,789 474.592,783.969 444.357,774.628C441.462,773.734 438.315,774.267 435.877,776.066C433.439,777.864 432,780.713 432,783.743L432,955.611C432,957.466 431.561,959.294 430.718,960.947L364.094,1091.63C362.088,1095.57 358.044,1098.04 353.628,1098.04L294.372,1098.04C289.956,1098.04 285.912,1095.57 283.906,1091.63L217.282,960.947ZM347.089,1114.71C347.812,1114.71 348.479,1115.1 348.833,1115.73C349.187,1116.36 349.173,1117.13 348.796,1117.75L325.707,1155.58C325.344,1156.17 324.697,1156.54 324,1156.54C323.303,1156.54 322.656,1156.17 322.293,1155.58L299.204,1117.75C298.827,1117.13 298.813,1116.36 299.167,1115.73C299.521,1115.1 300.188,1114.71 300.911,1114.71L347.089,1114.71ZM351.399,1137.48C351.596,1137.16 351.959,1136.97 352.336,1137.01C395.393,1140.61 429.77,1134.98 460.67,1128.42C493.89,1121.37 523.279,1113.36 554.645,1113.56C573.523,1113.67 593.103,1116.64 614.574,1124.51C689.133,1151.84 730.067,1126.6 789.034,1126.62C811.997,1126.62 849.348,1138.79 863.515,1145.59C863.978,1145.82 864.189,1146.36 864,1146.84C863.811,1147.32 863.285,1147.58 862.791,1147.43C839.279,1140.28 807.276,1136.25 789.023,1136.52C728.324,1137.42 687.045,1164.94 609.426,1139.28C589.745,1132.78 571.925,1130.63 554.818,1131.07C524.752,1131.85 496.871,1140.63 465.25,1148.41C430.024,1157.08 390.438,1164.59 339.176,1160.28C338.831,1160.25 338.526,1160.05 338.369,1159.74C338.212,1159.43 338.227,1159.06 338.408,1158.77C341.131,1154.3 349.636,1140.37 351.399,1137.48Z" style="fill:rgb(53,155,255);"/>
    </g>
</svg>
